HIERARCHY
ROOT RootFrame
{
	OFFSET 0 0 0
	CHANNELS 6 Xposition Yposition Zposition Zrotation Xrotation Yrotation
	JOINT Pelvis
	{
		OFFSET -3.5251e-007 94.5983 1.47851
		CHANNELS 3 Zrotation Xrotation Yrotation
		JOINT LLegUpper
		{
			OFFSET 8.61921 -3.43409 -0.319008
			CHANNELS 3 Zrotation Xrotation Yrotation
			JOINT LLegCalf
			{
				OFFSET 5.13797 -41.2338 -0.41111
				CHANNELS 3 Zrotation Xrotation Yrotation
				JOINT LLegAnkle
				{
					OFFSET 1.23055 -36.699 -6.98437
					CHANNELS 3 Zrotation Xrotation Yrotation
					JOINT LLegToe1
					{
						OFFSET 4.03061 -11.084 10.7943
						CHANNELS 3 Zrotation Xrotation Yrotation
						End Site
						{
							OFFSET 0 0 0
						}
					}
				}
			}
		}
		JOINT Spine1
		{
			OFFSET 0 0 0
			CHANNELS 3 Zrotation Xrotation Yrotation
			JOINT Spine2
			{
				OFFSET -1.42109e-012 20.238 0
				CHANNELS 3 Zrotation Xrotation Yrotation
				JOINT Spine3
				{
					OFFSET -2.41585e-012 20.238 1.19209e-007
					CHANNELS 3 Zrotation Xrotation Yrotation
					JOINT Neck1
					{
						OFFSET 3.52966e-007 25.7934 1.43051e-005
						CHANNELS 3 Zrotation Xrotation Yrotation
						JOINT NeckHead
						{
							OFFSET -1.31919e-012 7.20497 0
							CHANNELS 3 Zrotation Xrotation Yrotation
							JOINT Reyelid
							{
								OFFSET -3.4393 6.75359 9.06984
								CHANNELS 3 Zrotation Xrotation Yrotation
								End Site
								{
									OFFSET 0 0 0
								}
							}
							JOINT Leyelid
							{
								OFFSET 3.4393 6.75359 9.06984
								CHANNELS 3 Zrotation Xrotation Yrotation
								End Site
								{
									OFFSET 0 0 0
								}
							}
							JOINT Rbrow
							{
								OFFSET -3.55657 8.31168 10.4921
								CHANNELS 3 Zrotation Xrotation Yrotation
								End Site
								{
									OFFSET 0 0 0
								}
							}
							JOINT Lbrow
							{
								OFFSET 3.55657 8.31168 10.4921
								CHANNELS 3 Zrotation Xrotation Yrotation
								End Site
								{
									OFFSET 0 0 0
								}
							}
							JOINT Rmouth
							{
								OFFSET -2.99218 -1.99307 10.4921
								CHANNELS 3 Zrotation Xrotation Yrotation
								End Site
								{
									OFFSET 0 0 0
								}
							}
							JOINT Lmouth
							{
								OFFSET 2.99218 -1.99307 10.4921
								CHANNELS 3 Zrotation Xrotation Yrotation
								End Site
								{
									OFFSET 0 0 0
								}
							}
						}
					}
					JOINT RArmCollarbone
					{
						OFFSET -0.91666 21.7163 -4.76837e-007
						CHANNELS 3 Zrotation Xrotation Yrotation
						JOINT RArmUpper1
						{
							OFFSET -16.086 -5.87221 -1.62258
							CHANNELS 3 Zrotation Xrotation Yrotation
							JOINT RArmUpper2
							{
								OFFSET -9.39241 -9.29399 1.90783
								CHANNELS 3 Zrotation Xrotation Yrotation
								JOINT RArmForearm1
								{
									OFFSET -9.39241 -9.29399 1.90782
									CHANNELS 3 Zrotation Xrotation Yrotation
									JOINT RArmForearm2
									{
										OFFSET -3.92162 -4.93582 11.7676
										CHANNELS 3 Zrotation Xrotation Yrotation
										JOINT RArmHand
										{
											OFFSET -3.92163 -4.93581 11.7676
											CHANNELS 3 Zrotation Xrotation Yrotation
											JOINT RArmPinky1
											{
												OFFSET 1.49442 -7.67248 6.4453
												CHANNELS 3 Zrotation Xrotation Yrotation
												JOINT RArmPinky2
												{
													OFFSET 3.01939 -0.840492 1.43143
													CHANNELS 3 Zrotation Xrotation Yrotation
													JOINT RArmPinky3
													{
														OFFSET 1.71688 -0.155457 0.574268
														CHANNELS 3 Zrotation Xrotation Yrotation
														End Site
														{
															OFFSET 0 0 0
														}
													}
												}
											}
											JOINT RArmRing1
											{
												OFFSET 0.415699 -6.11449 8.20491
												CHANNELS 3 Zrotation Xrotation Yrotation
												JOINT RArmRing2
												{
													OFFSET 3.52583 -0.965538 3.21172
													CHANNELS 3 Zrotation Xrotation Yrotation
													JOINT RArmRing3
													{
														OFFSET 2.14619 -0.366417 1.62664
														CHANNELS 3 Zrotation Xrotation Yrotation
														End Site
														{
															OFFSET 0 0 0
														}
													}
												}
											}
											JOINT RArmMid1
											{
												OFFSET -0.41209 -3.60024 9.05726
												CHANNELS 3 Zrotation Xrotation Yrotation
												JOINT RArmMid2
												{
													OFFSET 3.62185 -1.05659 4.77322
													CHANNELS 3 Zrotation Xrotation Yrotation
													JOINT RArmMid3
													{
														OFFSET 2.19032 -0.0774002 1.65763
														CHANNELS 3 Zrotation Xrotation Yrotation
														End Site
														{
															OFFSET 0 0 0
														}
													}
												}
											}
											JOINT RArmIndex1
											{
												OFFSET -0.678616 -0.517052 9.83126
												CHANNELS 3 Zrotation Xrotation Yrotation
												JOINT RArmIndex2
												{
													OFFSET 1.82534 -0.632805 4.81508
													CHANNELS 3 Zrotation Xrotation Yrotation
													JOINT RArmIndex3
													{
														OFFSET 1.6771 0.105896 1.82664
														CHANNELS 3 Zrotation Xrotation Yrotation
														End Site
														{
															OFFSET 0 0 0
														}
													}
												}
											}
											JOINT RArmThumb1
											{
												OFFSET 0.534355 2.8312 2.29797
												CHANNELS 3 Zrotation Xrotation Yrotation
												JOINT RArmThumb2
												{
													OFFSET 2.0046 0.711784 3.18902
													CHANNELS 3 Zrotation Xrotation Yrotation
													JOINT RArmThumb3
													{
														OFFSET 2.45937 -0.133209 3.55324
														CHANNELS 3 Zrotation Xrotation Yrotation
														End Site
														{
															OFFSET 0 0 0
														}
													}
												}
											}
											JOINT M4MB
											{
												OFFSET 4.18665 -2.28949 7.22334
												CHANNELS 3 Zrotation Xrotation Yrotation
												End Site
												{
													OFFSET 0 0 0
												}
											}
										}
									}
								}
							}
						}
					}
					JOINT LArmCollarbone
					{
						OFFSET 0.91666 21.7163 -3.57628e-007
						CHANNELS 3 Zrotation Xrotation Yrotation
						JOINT LArmUpper1
						{
							OFFSET 16.086 -5.87219 -1.62258
							CHANNELS 3 Zrotation Xrotation Yrotation
							JOINT LArmUpper2
							{
								OFFSET 9.3924 -9.29399 1.90783
								CHANNELS 3 Zrotation Xrotation Yrotation
								JOINT LArmForearm1
								{
									OFFSET 9.39241 -9.29398 1.90783
									CHANNELS 3 Zrotation Xrotation Yrotation
									JOINT LArmForearm2
									{
										OFFSET 3.92161 -4.93583 11.7676
										CHANNELS 3 Zrotation Xrotation Yrotation
										JOINT LArmHand
										{
											OFFSET 3.92163 -4.93582 11.7676
											CHANNELS 3 Zrotation Xrotation Yrotation
											JOINT LArmPinky1
											{
												OFFSET -1.49442 -7.67248 6.44531
												CHANNELS 3 Zrotation Xrotation Yrotation
												JOINT LArmPinky2
												{
													OFFSET -3.01938 -0.840477 1.43142
													CHANNELS 3 Zrotation Xrotation Yrotation
													JOINT LArmPinky3
													{
														OFFSET -1.71687 -0.155464 0.57428
														CHANNELS 3 Zrotation Xrotation Yrotation
														End Site
														{
															OFFSET 0 0 0
														}
													}
												}
											}
											JOINT LArmRing1
											{
												OFFSET -0.41571 -6.11449 8.20491
												CHANNELS 3 Zrotation Xrotation Yrotation
												JOINT LArmRing2
												{
													OFFSET -3.52583 -0.965546 3.21173
													CHANNELS 3 Zrotation Xrotation Yrotation
													JOINT LArmRing3
													{
														OFFSET -2.14619 -0.366417 1.62665
														CHANNELS 3 Zrotation Xrotation Yrotation
														End Site
														{
															OFFSET 0 0 0
														}
													}
												}
											}
											JOINT LArmMid1
											{
												OFFSET 0.41209 -3.60023 9.05727
												CHANNELS 3 Zrotation Xrotation Yrotation
												JOINT LArmMid2
												{
													OFFSET -3.62185 -1.05659 4.77322
													CHANNELS 3 Zrotation Xrotation Yrotation
													JOINT LArmMid3
													{
														OFFSET -2.19033 -0.0773849 1.65763
														CHANNELS 3 Zrotation Xrotation Yrotation
														End Site
														{
															OFFSET 0 0 0
														}
													}
												}
											}
											JOINT LArmIndex1
											{
												OFFSET 0.678612 -0.517052 9.83127
												CHANNELS 3 Zrotation Xrotation Yrotation
												JOINT LArmIndex2
												{
													OFFSET -1.82534 -0.632805 4.81507
													CHANNELS 3 Zrotation Xrotation Yrotation
													JOINT LArmIndex3
													{
														OFFSET -1.6771 0.105919 1.82664
														CHANNELS 3 Zrotation Xrotation Yrotation
														End Site
														{
															OFFSET 0 0 0
														}
													}
												}
											}
											JOINT LArmThumb1
											{
												OFFSET -0.534363 2.83121 2.29797
												CHANNELS 3 Zrotation Xrotation Yrotation
												JOINT LArmThumb2
												{
													OFFSET -2.0046 0.711777 3.18902
													CHANNELS 3 Zrotation Xrotation Yrotation
													JOINT LArmThumb3
													{
														OFFSET -2.45937 -0.133202 3.55324
														CHANNELS 3 Zrotation Xrotation Yrotation
														End Site
														{
															OFFSET 0 0 0
														}
													}
												}
											}
										}
									}
								}
							}
						}
					}
				}
			}
		}
		JOINT RLegUpper
		{
			OFFSET -8.61921 -3.43409 -0.31901
			CHANNELS 3 Zrotation Xrotation Yrotation
			JOINT RLegCalf
			{
				OFFSET -5.13055 -41.2347 -0.407447
				CHANNELS 3 Zrotation Xrotation Yrotation
				JOINT RLegAnkle
				{
					OFFSET -1.24166 -36.6967 -6.99426
					CHANNELS 3 Zrotation Xrotation Yrotation
					JOINT RLegToe1
					{
						OFFSET -4.02313 -11.0861 10.7949
						CHANNELS 3 Zrotation Xrotation Yrotation
						End Site
						{
							OFFSET 0 0 0
						}
					}
				}
			}
		}
	}
	JOINT unity_pilot_01
	{
		OFFSET 0 0 0
		CHANNELS 3 Zrotation Xrotation Yrotation
		End Site
		{
			OFFSET 0 0 0
		}
	}
}
MOTION
Frames: 5
Frame Time: 0.033333
0 0 0 0 0 0 -1.56652e-005 4.30025 -13.5999 -5.29784 10.3489 10.94 -3.42373 37.7924 4.29952 -5.92797 44.1534 -6.66545 -8.50337e-007 -8.11489e-007 5.81071e-006 -2.60817 8.90417 -1.3734 -4.53728 11.6851 -8.61572 0.602447 -1.64182 -9.34022 -4.68509 3.9618 8.18765 12.3886 -19.3224 24.3453 -1.06722e-007 8.53774e-007 -5.33619e-008 -1.06722e-007 8.53774e-007 -5.33619e-008 -1.06722e-007 8.53774e-007 -5.33619e-008 -1.06722e-007 8.53774e-007 -5.33619e-008 -1.06722e-007 8.53774e-007 -5.33619e-008 -1.06722e-007 8.53774e-007 -5.33619e-008 -11.7064 0.846371 -3.12797 13.491 -7.55525 47.1217 -0.527784 2.35017 2.34707 6.6271 -39.8145 45.0286 2.97713 -1.0279 -1.22686 39.6646 42.4265 -64.7567 15.8328 -15.997 10.3812 37.099 -0.612302 28.0941 -3.23538e-007 -6.49704e-006 2.98042e-006 20.0783 -9.12597 35.7201 41.0315 1.95054 58.762 1.69378e-006 1.47098e-006 -4.38628e-006 9.73383 -2.30627 38.1298 33.7787 -0.474113 66.8284 3.62748e-006 -1.39454e-006 -2.89973e-006 -13.8763 0.763512 -7.18631 13.1394 -8.90936 37.8801 -3.93804e-006 -6.5994e-006 5.27393e-006 -34.6473 -8.33836 -4.29627 -0.570184 0.833135 0.247 4.15992e-007 8.16285e-007 -3.72884e-006 1.55151e-006 -6.266e-007 -5.51004e-007 11.5535 -7.31538 -10.3542 -18.4733 -18.4776 0.516603 0.268775 1.25314 -1.24584 -5.85772 4.39079 -12.011 -8.12829 -2.97082 3.2383 -51.5248 4.59075 68.7137 13.7911 -39.5063 14.2512 -26.4801 -2.3221 -20.0724 -1.82682e-006 -3.86625e-006 -5.77487e-007 6.72169 -27.7768 1.57975 -26.1631 -3.84144 -37.128 -4.98054e-006 6.69841e-006 8.7055e-007 9.94027 -16.3979 -2.36816 -17.8835 9.0181 -33.209 -5.19865e-007 1.12974e-006 -3.22437e-006 18.7268 -5.48563 10.912 1.85122 2.83345 7.65564 -6.59853e-007 -7.12189e-006 9.13732e-007 7.08497 -4.91105 13.1483 1.59871 -3.55424 -5.47097 -2.86711e-006 -7.81233e-006 9.13309e-007 25.9753 -47.3335 34.8782 0.393647 24.8775 -1.90559 -6.17607 -2.85436 2.26779 -8.36983e-007 -1.82171e-006 -7.67102e-007 0 0 0 
0 0 0 0 0 0 -0.212788 4.30003 -13.6062 -3.52609 8.0282 10.4916 -4.73577 42.0672 5.40996 -5.35306 44.8643 -8.00844 -0.00535266 0.0152358 0.000325539 -2.55823 8.97772 -1.35068 -4.226 11.9036 -8.50006 0.889493 -1.50432 -9.09957 -4.02055 3.05696 8.05788 11.8638 -19.7726 24.1045 3.55739e-007 1.13836e-006 -9.15583e-006 3.55739e-007 1.13836e-006 -9.15583e-006 3.55739e-007 1.13836e-006 -9.15583e-006 3.55739e-007 1.13836e-006 -9.15583e-006 3.55739e-007 1.13836e-006 -9.15583e-006 3.55739e-007 1.13836e-006 -9.15583e-006 -11.7057 0.831035 -3.06787 13.4863 -7.57478 47.1025 -0.527909 2.35069 2.34759 6.83755 -39.9891 45.329 2.98987 -1.03245 -1.23202 39.9475 42.481 -65.1999 15.8328 -15.997 10.3812 37.099 -0.612298 28.0941 -1.78458e-006 -1.10989e-005 4.12805e-006 20.0783 -9.12597 35.7201 41.0315 1.95054 58.762 1.49795e-006 6.28761e-006 -3.72464e-006 9.73383 -2.30628 38.1298 33.7787 -0.474111 66.8284 -1.02334e-007 -4.15437e-006 7.51654e-007 -13.8763 0.763514 -7.18632 13.1393 -8.90936 37.8801 -4.93371e-006 -5.80623e-006 3.1371e-006 -34.6473 -8.33836 -4.29628 -0.570184 0.833132 0.246995 -3.50743e-006 -2.01355e-006 -4.74321e-007 1.55151e-006 -6.266e-007 -5.51004e-007 11.5815 -7.30247 -10.3007 -18.4199 -18.4063 0.708103 0.268814 1.25333 -1.24602 -5.9681 4.15169 -12.3431 -8.132 -2.9723 3.2397 -51.5045 4.59431 68.9488 13.7911 -39.5063 14.2512 -26.4801 -2.3221 -20.0724 3.21384e-007 -1.19063e-005 -1.0677e-007 6.72168 -27.7768 1.57976 -26.1631 -3.84145 -37.128 -4.50035e-006 1.00879e-005 3.88303e-006 9.94026 -16.3979 -2.36816 -23.0975 52.6838 -29.027 -6.29029e-006 -1.11938e-005 -2.7247e-005 18.7268 -5.48562 10.912 1.85122 2.83345 7.65564 -3.64689e-006 -9.50141e-006 1.76266e-006 7.08497 -4.91105 13.1483 1.59871 -3.55424 -5.47097 4.96641e-007 -6.08935e-006 6.23863e-006 25.5187 -45.2128 33.9296 -0.0634019 22.5271 -1.57594 -6.1523 0.0447254 2.32074 0.0011 0.00637714 -0.00126064 0 0 0 
0 0 0 0 0 0 -0.42556 4.29982 -13.6125 -1.78128 5.69496 10.1176 -7.13909 48.4478 7.52235 -4.74733 45.5652 -9.37832 -0.0107038 0.0304702 0.000647727 -2.50831 9.05129 -1.32802 -3.91491 12.1226 -8.38553 1.17594 -1.36562 -8.85962 -3.35853 2.15067 7.93872 11.3354 -20.2206 23.8586 8.182e-007 1.42296e-006 -1.82583e-005 8.182e-007 1.42296e-006 -1.82583e-005 8.182e-007 1.42296e-006 -1.82583e-005 8.182e-007 1.42296e-006 -1.82583e-005 8.182e-007 1.42296e-006 -1.82583e-005 8.182e-007 1.42296e-006 -1.82583e-005 -11.705 0.8157 -3.00776 13.4815 -7.59432 47.0832 -0.528038 2.3512 2.34811 7.04972 -40.1628 45.631 3.00261 -1.037 -1.23717 40.2312 42.534 -65.6438 15.8328 -15.997 10.3812 37.099 -0.612294 28.0941 -3.48248e-006 -1.00809e-005 5.52564e-006 20.0783 -9.12598 35.7201 41.0315 1.95054 58.762 5.61452e-007 9.16331e-006 -6.38666e-006 9.73382 -2.30628 38.1297 33.7787 -0.474112 66.8284 -2.3978e-006 -4.22776e-006 7.85059e-006 -13.8763 0.763515 -7.18632 13.1394 -8.90937 37.8801 -4.01087e-006 -4.531e-006 2.70179e-006 -34.6473 -8.33837 -4.29629 -0.570182 0.83313 0.246994 -4.14193e-006 -7.72504e-006 -5.35474e-006 1.55151e-006 -6.266e-007 -5.51004e-007 11.6095 -7.28954 -10.2472 -18.3667 -18.3348 0.899452 0.26886 1.25351 -1.24621 -6.07983 3.91324 -12.6755 -8.13571 -2.97376 3.24109 -51.4841 4.59796 69.1839 13.7911 -39.5063 14.2512 -26.4801 -2.3221 -20.0724 1.78242e-006 -1.65082e-005 2.13835e-007 6.72168 -27.7768 1.57976 -26.1631 -3.84145 -37.128 -2.73002e-006 1.10746e-005 4.57203e-006 9.94026 -16.3979 -2.36816 -166.621 79.3023 113.667 -1.14649e-005 -2.51505e-005 -4.43174e-005 18.7268 -5.48562 10.912 1.85121 2.83345 7.65565 -5.97014e-006 -1.13522e-005 -3.74176e-007 7.08496 -4.91104 13.1483 1.59871 -3.55425 -5.47097 3.78558e-006 -3.2077e-006 1.01665e-005 25.1263 -43.0874 33.0377 -0.498767 20.1744 -1.27152 -6.13119 2.94383 2.37255 0.00220097 0.0127561 -0.00252291 0 0 0 
0 0 0 0 0 0 -0.851106 4.29949 -13.6252 1.6515 1.00021 9.58592 -10.3081 54.7494 10.4125 -4.10991 46.2557 -10.7761 -0.0160558 0.0457071 0.000969946 -2.45841 9.12488 -1.30543 -3.60401 12.3423 -8.27212 1.46179 -1.22572 -8.62039 -2.69872 1.24307 7.8301 10.8035 -20.6665 23.6076 1.28066e-006 1.70755e-006 -2.73608e-005 1.28066e-006 1.70755e-006 -2.73608e-005 1.28066e-006 1.70755e-006 -2.73608e-005 1.28066e-006 1.70755e-006 -2.73608e-005 1.28066e-006 1.70755e-006 -2.73608e-005 1.28066e-006 1.70755e-006 -2.73608e-005 -11.7043 0.800366 -2.94765 13.4767 -7.61385 47.064 -0.528165 2.35173 2.34864 7.26363 -40.3357 45.9347 3.01535 -1.04155 -1.24232 40.5157 42.5853 -66.0885 15.8328 -15.997 10.3812 37.099 -0.612295 28.0941 -4.22745e-006 -1.20028e-005 7.12905e-006 20.0783 -9.12598 35.7201 41.0315 1.95053 58.762 7.38316e-007 1.37722e-005 -4.5496e-006 9.73382 -2.30629 38.1298 33.7787 -0.47411 66.8284 -6.29375e-006 -6.85393e-006 1.0819e-005 -13.8763 0.763517 -7.18632 13.1394 -8.90937 37.8801 -5.00655e-006 -3.73783e-006 3.1154e-006 -34.6473 -8.33838 -4.29629 -0.570183 0.833128 0.246992 -6.0214e-006 -1.20352e-005 -4.66678e-006 1.55151e-006 -6.266e-007 -5.51004e-007 11.6375 -7.27658 -10.1938 -18.3138 -18.2631 1.09065 0.2689 1.25369 -1.24639 -6.19293 3.67543 -13.0083 -8.13941 -2.97524 3.24249 -51.4637 4.6017 69.419 13.7911 -39.5062 14.2512 -26.4801 -2.3221 -20.0724 3.21456e-006 -2.18682e-005 6.84552e-007 6.72167 -27.7768 1.57976 -26.1631 -3.84145 -37.128 -2.24984e-006 1.44641e-005 7.5845e-006 9.94025 -16.3979 -2.36815 168.654 33.448 137.487 -1.64733e-005 -3.89737e-005 -5.91024e-005 18.7268 -5.48561 10.912 1.85121 2.83345 7.65565 -7.19496e-006 -1.40301e-005 8.88364e-007 7.08496 -4.91103 13.1483 1.5987 -3.55424 -5.47097 6.45202e-006 -1.02672e-006 1.64436e-005 24.7907 -40.9579 32.1945 -1.31393 15.4631 -0.729958 -6.11263 5.84295 2.42349 0.00330211 0.019135 -0.00378528 0 0 0 
0 0 0 0 0 0 -1.00541 4.29903 -13.6878 3.43825 -1.44284 9.30847 -12.8497 58.5943 12.7869 -3.37258 44.5304 -12.0586 -0.016054 0.0457103 0.000963368 -2.46261 9.23943 -1.24816 -3.47616 12.6783 -7.96597 1.58895 -1.0174 -8.2461 -1.92181 -0.143393 7.63337 10.2139 -20.6609 23.1104 -2.26784e-006 1.58749e-006 -3.41497e-005 -2.26784e-006 1.58749e-006 -3.41497e-005 -2.26784e-006 1.58749e-006 -3.41497e-005 -2.26784e-006 1.58749e-006 -3.41497e-005 -2.26784e-006 1.58749e-006 -3.41497e-005 -2.26784e-006 1.58749e-006 -3.41497e-005 -11.7028 0.769115 -2.8253 13.3669 -7.61896 46.7788 -0.527995 2.35104 2.34795 7.59749 -40.6035 46.4024 3.03106 -1.04717 -1.24868 40.8404 42.6451 -66.4767 15.8328 -15.997 10.3812 37.099 -0.612295 28.0941 -7.44701e-006 -1.42929e-005 6.51663e-006 20.0783 -9.12598 35.7201 41.0315 1.95054 58.762 8.45798e-007 1.05905e-005 -4.5496e-006 9.73383 -2.30628 38.1298 33.7787 -0.474111 66.8284 -5.79534e-006 -7.25493e-006 1.6609e-005 -13.8763 0.76352 -7.18632 13.1394 -8.90936 37.8801 -1.25649e-005 -1.34916e-005 2.24111e-006 -34.6473 -8.33837 -4.29629 -0.570182 0.833132 0.246994 -1.04925e-005 -1.30057e-005 -1.08715e-005 1.55151e-006 -6.266e-007 -5.51004e-007 11.6944 -7.24986 -10.085 -18.3888 -18.1928 1.10776 0.26889 1.25365 -1.24635 -6.31268 3.42385 -13.3579 -8.14752 -2.97845 3.24553 -51.3864 4.52331 69.7085 13.7911 -39.5063 14.2512 -26.4801 -2.3221 -20.0724 1.03745e-006 -1.45863e-005 -7.26108e-007 6.72169 -27.7768 1.57977 -26.1631 -3.84145 -37.128 -4.93761e-006 1.60879e-005 5.00414e-006 9.94025 -16.3979 -2.36814 -177.273 73.6804 124.211 -1.17606e-005 -3.13416e-005 -4.51472e-005 18.7268 -5.48561 10.912 1.85121 2.83345 7.65564 -6.63392e-006 -1.18809e-005 3.94373e-008 7.08496 -4.91104 13.1483 1.5987 -3.55424 -5.47097 -5.91388e-006 8.45775e-006 2.01369e-005 25.1933 -41.0119 32.3422 -0.629353 19.445 -1.18335 -5.98818 5.88814 2.22103 0.00330039 0.0191331 -0.00378688 0 0 0 
